<mxfile host="Electron" modified="2023-09-01T16:27:51.774Z" agent="Mozilla/5.0 (X11; Linux x86_64) AppleWebKit/537.36 (KHTML, like Gecko) draw.io/21.6.8 Chrome/114.0.5735.289 Electron/25.5.0 Safari/537.36" etag="ACcuD7soEkQQXRjtPqXa" version="21.6.8" type="device">
  <diagram name="Page-1" id="PljlsfvJQi_vC89PuRE5">
    <mxGraphModel dx="220" dy="398" grid="1" gridSize="10" guides="1" tooltips="1" connect="1" arrows="1" fold="1" page="1" pageScale="1" pageWidth="850" pageHeight="1100" math="0" shadow="0">
      <root>
        <mxCell id="0" />
        <mxCell id="1" parent="0" />
        <mxCell id="ToQhXQZyftwZSW29-jGW-13" value="" style="ellipse;whiteSpace=wrap;html=1;aspect=fixed;rotation=-45;fillColor=#dae8fc;strokeColor=#6c8ebf;gradientColor=#0D35FF;" vertex="1" parent="1">
          <mxGeometry x="60" y="540" width="210" height="210" as="geometry" />
        </mxCell>
        <mxCell id="ToQhXQZyftwZSW29-jGW-8" value="" style="ellipse;whiteSpace=wrap;html=1;aspect=fixed;rotation=-45;fillColor=#dae8fc;strokeColor=#6c8ebf;gradientColor=#0D35FF;" vertex="1" parent="1">
          <mxGeometry x="470" y="230" width="210" height="210" as="geometry" />
        </mxCell>
        <mxCell id="ToQhXQZyftwZSW29-jGW-1" value="" style="ellipse;whiteSpace=wrap;html=1;aspect=fixed;rotation=-45;fillColor=#dae8fc;strokeColor=#6c8ebf;gradientColor=#0D35FF;" vertex="1" parent="1">
          <mxGeometry x="70" y="230" width="210" height="210" as="geometry" />
        </mxCell>
        <mxCell id="ToQhXQZyftwZSW29-jGW-2" value="" style="shape=dataStorage;whiteSpace=wrap;html=1;fixedSize=1;" vertex="1" parent="1">
          <mxGeometry x="95" y="300" width="70" height="70" as="geometry" />
        </mxCell>
        <mxCell id="ToQhXQZyftwZSW29-jGW-4" value="" style="verticalLabelPosition=bottom;verticalAlign=top;html=1;shape=mxgraph.basic.partConcEllipse;startAngle=0.25;endAngle=0.1;arcWidth=0.5;" vertex="1" parent="1">
          <mxGeometry x="165" y="297.5" width="80" height="75" as="geometry" />
        </mxCell>
        <mxCell id="ToQhXQZyftwZSW29-jGW-5" value="" style="verticalLabelPosition=bottom;verticalAlign=top;html=1;shape=mxgraph.basic.partConcEllipse;startAngle=0.25;endAngle=0;arcWidth=0.5;" vertex="1" parent="1">
          <mxGeometry x="570" y="297.5" width="80" height="75" as="geometry" />
        </mxCell>
        <mxCell id="ToQhXQZyftwZSW29-jGW-9" value="" style="shape=dataStorage;whiteSpace=wrap;html=1;fixedSize=1;" vertex="1" parent="1">
          <mxGeometry x="500" y="302.5" width="70" height="70" as="geometry" />
        </mxCell>
        <mxCell id="ToQhXQZyftwZSW29-jGW-12" value="" style="shape=switch;whiteSpace=wrap;html=1;" vertex="1" parent="1">
          <mxGeometry x="90" y="575" width="150" height="140" as="geometry" />
        </mxCell>
        <mxCell id="ToQhXQZyftwZSW29-jGW-15" value="" style="verticalLabelPosition=bottom;verticalAlign=top;html=1;shape=mxgraph.basic.partConcEllipse;startAngle=0.25;endAngle=0.1;arcWidth=0.5;fillColor=#f8cecc;strokeColor=#b85450;gradientColor=#FF0000;" vertex="1" parent="1">
          <mxGeometry x="132.5" y="613.75" width="65" height="62.5" as="geometry" />
        </mxCell>
        <mxCell id="ToQhXQZyftwZSW29-jGW-16" value="" style="ellipse;whiteSpace=wrap;html=1;aspect=fixed;rotation=-45;fillColor=#dae8fc;strokeColor=#6c8ebf;gradientColor=#0D35FF;" vertex="1" parent="1">
          <mxGeometry x="470" y="540" width="210" height="210" as="geometry" />
        </mxCell>
        <mxCell id="ToQhXQZyftwZSW29-jGW-17" value="" style="shape=switch;whiteSpace=wrap;html=1;" vertex="1" parent="1">
          <mxGeometry x="500" y="575" width="150" height="140" as="geometry" />
        </mxCell>
        <mxCell id="ToQhXQZyftwZSW29-jGW-18" value="" style="verticalLabelPosition=bottom;verticalAlign=top;html=1;shape=mxgraph.basic.partConcEllipse;startAngle=0.25;endAngle=0.1;arcWidth=0.5;fillColor=#f8cecc;strokeColor=#b85450;gradientColor=#FF0000;rotation=-60;" vertex="1" parent="1">
          <mxGeometry x="542.5" y="613.75" width="65" height="62.5" as="geometry" />
        </mxCell>
        <mxCell id="ToQhXQZyftwZSW29-jGW-21" value="" style="ellipse;whiteSpace=wrap;html=1;aspect=fixed;rotation=-45;fillColor=#dae8fc;strokeColor=#6c8ebf;gradientColor=#0D35FF;" vertex="1" parent="1">
          <mxGeometry x="270" y="770" width="210" height="210" as="geometry" />
        </mxCell>
        <mxCell id="ToQhXQZyftwZSW29-jGW-22" value="" style="shape=switch;whiteSpace=wrap;html=1;" vertex="1" parent="1">
          <mxGeometry x="300" y="805" width="150" height="140" as="geometry" />
        </mxCell>
        <mxCell id="ToQhXQZyftwZSW29-jGW-23" value="" style="verticalLabelPosition=bottom;verticalAlign=top;html=1;shape=mxgraph.basic.partConcEllipse;startAngle=0.25;endAngle=0.1;arcWidth=0.5;fillColor=#f8cecc;strokeColor=#b85450;gradientColor=#FF0000;rotation=-15;" vertex="1" parent="1">
          <mxGeometry x="342.5" y="843.75" width="65" height="62.5" as="geometry" />
        </mxCell>
      </root>
    </mxGraphModel>
  </diagram>
</mxfile>
